<svg id="visual" viewBox="0 0 900 500" width="900" height="500" xmlns="http://www.w3.org/2000/svg" xmlns:xlink="http://www.w3.org/1999/xlink" version="1.1"><g transform="translate(452.9502554109089 241.64495556828888)"><path d="M100 -145C127.1 -117.9 144.9 -85.4 162.9 -48.5C181 -11.6 199.4 29.6 196.8 72.1C194.2 114.6 170.6 158.4 134.3 183C98 207.5 49 212.8 9.2 200.1C-30.6 187.5 -61.2 156.9 -93.3 131C-125.3 105.1 -158.7 83.8 -180.2 50.7C-201.6 17.7 -211.1 -27 -194.5 -58.6C-177.9 -90.1 -135.1 -108.6 -98.3 -132.5C-61.5 -156.3 -30.8 -185.7 2.8 -189.6C36.4 -193.5 72.9 -172 100 -145" fill="#fa7268"></path></g></svg>