<svg id="visual" viewBox="0 0 900 500" width="900" height="500" xmlns="http://www.w3.org/2000/svg" xmlns:xlink="http://www.w3.org/1999/xlink" version="1.1"><g transform="translate(447.79585489918554 238.89400933856504)"><path d="M125.6 -168.6C154.5 -152 163.8 -104.1 178.4 -58.2C193.1 -12.3 213 31.7 206.3 71.6C199.6 111.4 166.2 147.1 127.4 170.3C88.6 193.6 44.3 204.3 6 196.1C-32.3 187.8 -64.7 160.7 -104.3 137.7C-143.9 114.7 -190.8 96 -201 65.2C-211.1 34.4 -184.5 -8.4 -168.9 -54.4C-153.3 -100.3 -148.6 -149.2 -122.3 -166.7C-96 -184.2 -48 -170.2 0.2 -170.5C48.4 -170.8 96.8 -185.3 125.6 -168.6" fill="#fa7268"></path></g></svg>