<svg id="visual" viewBox="0 0 2000 600" width="2000" height="600" xmlns="http://www.w3.org/2000/svg" xmlns:xlink="http://www.w3.org/1999/xlink" version="1.1"><rect x="0" y="0" width="2000" height="600" fill="#001220"></rect><path d="M0 407L47.7 405.8C95.3 404.7 190.7 402.3 285.8 407.8C381 413.3 476 426.7 571.2 436C666.3 445.3 761.7 450.7 857 448C952.3 445.3 1047.7 434.7 1143 438.3C1238.3 442 1333.7 460 1428.8 457C1524 454 1619 430 1714.2 426.8C1809.3 423.7 1904.7 441.3 1952.3 450.2L2000 459L2000 601L1952.3 601C1904.7 601 1809.3 601 1714.2 601C1619 601 1524 601 1428.8 601C1333.7 601 1238.3 601 1143 601C1047.7 601 952.3 601 857 601C761.7 601 666.3 601 571.2 601C476 601 381 601 285.8 601C190.7 601 95.3 601 47.7 601L0 601Z" fill="#fa7268"></path><path d="M0 492L47.7 487C95.3 482 190.7 472 285.8 463.7C381 455.3 476 448.7 571.2 454.5C666.3 460.3 761.7 478.7 857 479.5C952.3 480.3 1047.7 463.7 1143 461C1238.3 458.3 1333.7 469.7 1428.8 474C1524 478.3 1619 475.7 1714.2 469.5C1809.3 463.3 1904.7 453.7 1952.3 448.8L2000 444L2000 601L1952.3 601C1904.7 601 1809.3 601 1714.2 601C1619 601 1524 601 1428.8 601C1333.7 601 1238.3 601 1143 601C1047.7 601 952.3 601 857 601C761.7 601 666.3 601 571.2 601C476 601 381 601 285.8 601C190.7 601 95.3 601 47.7 601L0 601Z" fill="#ef5f67"></path><path d="M0 511L47.7 513.8C95.3 516.7 190.7 522.3 285.8 518.7C381 515 476 502 571.2 500.5C666.3 499 761.7 509 857 505.8C952.3 502.7 1047.7 486.3 1143 479.7C1238.3 473 1333.7 476 1428.8 482.2C1524 488.3 1619 497.7 1714.2 498.8C1809.3 500 1904.7 493 1952.3 489.5L2000 486L2000 601L1952.3 601C1904.7 601 1809.3 601 1714.2 601C1619 601 1524 601 1428.8 601C1333.7 601 1238.3 601 1143 601C1047.7 601 952.3 601 857 601C761.7 601 666.3 601 571.2 601C476 601 381 601 285.8 601C190.7 601 95.3 601 47.7 601L0 601Z" fill="#e34c67"></path><path d="M0 549L47.7 548C95.3 547 190.7 545 285.8 540.8C381 536.7 476 530.3 571.2 531C666.3 531.7 761.7 539.3 857 538.5C952.3 537.7 1047.7 528.3 1143 524.3C1238.3 520.3 1333.7 521.7 1428.8 522.5C1524 523.3 1619 523.7 1714.2 527.7C1809.3 531.7 1904.7 539.3 1952.3 543.2L2000 547L2000 601L1952.3 601C1904.7 601 1809.3 601 1714.2 601C1619 601 1524 601 1428.8 601C1333.7 601 1238.3 601 1143 601C1047.7 601 952.3 601 857 601C761.7 601 666.3 601 571.2 601C476 601 381 601 285.8 601C190.7 601 95.3 601 47.7 601L0 601Z" fill="#d53867"></path><path d="M0 572L47.7 569.7C95.3 567.3 190.7 562.7 285.8 561.2C381 559.7 476 561.3 571.2 562.7C666.3 564 761.7 565 857 565.7C952.3 566.3 1047.7 566.7 1143 568.5C1238.3 570.3 1333.7 573.7 1428.8 570.5C1524 567.3 1619 557.7 1714.2 556C1809.3 554.3 1904.7 560.7 1952.3 563.8L2000 567L2000 601L1952.3 601C1904.7 601 1809.3 601 1714.2 601C1619 601 1524 601 1428.8 601C1333.7 601 1238.3 601 1143 601C1047.7 601 952.3 601 857 601C761.7 601 666.3 601 571.2 601C476 601 381 601 285.8 601C190.7 601 95.3 601 47.7 601L0 601Z" fill="#c62368"></path></svg>