<svg id="visual" viewBox="0 0 2000 600" width="2000" height="600" xmlns="http://www.w3.org/2000/svg" xmlns:xlink="http://www.w3.org/1999/xlink" version="1.1"><rect x="0" y="0" width="2000" height="600" fill="#001220"></rect><path d="M0 414L33.3 390.7C66.7 367.3 133.3 320.7 200 315.3C266.7 310 333.3 346 400 357.2C466.7 368.3 533.3 354.7 600 350.2C666.7 345.7 733.3 350.3 800 346.8C866.7 343.3 933.3 331.7 1000 342.2C1066.7 352.7 1133.3 385.3 1200 392.7C1266.7 400 1333.3 382 1400 378.8C1466.7 375.7 1533.3 387.3 1600 373C1666.7 358.7 1733.3 318.3 1800 300.5C1866.7 282.7 1933.3 287.3 1966.7 289.7L2000 292L2000 0L1966.7 0C1933.3 0 1866.7 0 1800 0C1733.3 0 1666.7 0 1600 0C1533.3 0 1466.7 0 1400 0C1333.3 0 1266.7 0 1200 0C1133.3 0 1066.7 0 1000 0C933.3 0 866.7 0 800 0C733.3 0 666.7 0 600 0C533.3 0 466.7 0 400 0C333.3 0 266.7 0 200 0C133.3 0 66.7 0 33.3 0L0 0Z" fill="#fa7268"></path><path d="M0 308L33.3 306.2C66.7 304.3 133.3 300.7 200 288.5C266.7 276.3 333.3 255.7 400 254.5C466.7 253.3 533.3 271.7 600 286.7C666.7 301.7 733.3 313.3 800 313.8C866.7 314.3 933.3 303.7 1000 305.3C1066.7 307 1133.3 321 1200 324.7C1266.7 328.3 1333.3 321.7 1400 309.2C1466.7 296.7 1533.3 278.3 1600 270.5C1666.7 262.7 1733.3 265.3 1800 275.7C1866.7 286 1933.3 304 1966.7 313L2000 322L2000 0L1966.7 0C1933.3 0 1866.7 0 1800 0C1733.3 0 1666.7 0 1600 0C1533.3 0 1466.7 0 1400 0C1333.3 0 1266.7 0 1200 0C1133.3 0 1066.7 0 1000 0C933.3 0 866.7 0 800 0C733.3 0 666.7 0 600 0C533.3 0 466.7 0 400 0C333.3 0 266.7 0 200 0C133.3 0 66.7 0 33.3 0L0 0Z" fill="#ef5f67"></path><path d="M0 161L33.3 170.8C66.7 180.7 133.3 200.3 200 214.5C266.7 228.7 333.3 237.3 400 234.2C466.7 231 533.3 216 600 216.2C666.7 216.3 733.3 231.7 800 223.8C866.7 216 933.3 185 1000 188C1066.7 191 1133.3 228 1200 247C1266.7 266 1333.3 267 1400 265.3C1466.7 263.7 1533.3 259.3 1600 260C1666.7 260.7 1733.3 266.3 1800 251.7C1866.7 237 1933.3 202 1966.7 184.5L2000 167L2000 0L1966.7 0C1933.3 0 1866.7 0 1800 0C1733.3 0 1666.7 0 1600 0C1533.3 0 1466.7 0 1400 0C1333.3 0 1266.7 0 1200 0C1133.3 0 1066.7 0 1000 0C933.3 0 866.7 0 800 0C733.3 0 666.7 0 600 0C533.3 0 466.7 0 400 0C333.3 0 266.7 0 200 0C133.3 0 66.7 0 33.3 0L0 0Z" fill="#e34c67"></path><path d="M0 200L33.3 192.3C66.7 184.7 133.3 169.3 200 168.3C266.7 167.3 333.3 180.7 400 180.2C466.7 179.7 533.3 165.3 600 158.7C666.7 152 733.3 153 800 158C866.7 163 933.3 172 1000 171.2C1066.7 170.3 1133.3 159.7 1200 145.8C1266.7 132 1333.3 115 1400 110.3C1466.7 105.7 1533.3 113.3 1600 125.8C1666.7 138.3 1733.3 155.7 1800 167.8C1866.7 180 1933.3 187 1966.7 190.5L2000 194L2000 0L1966.7 0C1933.3 0 1866.7 0 1800 0C1733.3 0 1666.7 0 1600 0C1533.3 0 1466.7 0 1400 0C1333.3 0 1266.7 0 1200 0C1133.3 0 1066.7 0 1000 0C933.3 0 866.7 0 800 0C733.3 0 666.7 0 600 0C533.3 0 466.7 0 400 0C333.3 0 266.7 0 200 0C133.3 0 66.7 0 33.3 0L0 0Z" fill="#d53867"></path><path d="M0 72L33.3 75.5C66.7 79 133.3 86 200 85.2C266.7 84.3 333.3 75.7 400 72.7C466.7 69.7 533.3 72.3 600 77C666.7 81.7 733.3 88.3 800 84.2C866.7 80 933.3 65 1000 64.2C1066.7 63.3 1133.3 76.7 1200 89C1266.7 101.3 1333.3 112.7 1400 108.5C1466.7 104.3 1533.3 84.7 1600 73C1666.7 61.3 1733.3 57.7 1800 59.2C1866.7 60.7 1933.3 67.3 1966.7 70.7L2000 74L2000 0L1966.7 0C1933.3 0 1866.7 0 1800 0C1733.3 0 1666.7 0 1600 0C1533.3 0 1466.7 0 1400 0C1333.3 0 1266.7 0 1200 0C1133.3 0 1066.7 0 1000 0C933.3 0 866.7 0 800 0C733.3 0 666.7 0 600 0C533.3 0 466.7 0 400 0C333.3 0 266.7 0 200 0C133.3 0 66.7 0 33.3 0L0 0Z" fill="#c62368"></path></svg>